<?xml version="1.0" standalone="no"?>
<!DOCTYPE svg PUBLIC "-//W3C//DTD SVG 20010904//EN"
 "http://www.w3.org/TR/2001/REC-SVG-20010904/DTD/svg10.dtd">
<svg version="1.0" xmlns="http://www.w3.org/2000/svg"
 width="500.000000pt" height="500.000000pt" viewBox="0 0 500.000000 500.000000"
 preserveAspectRatio="xMidYMid meet">
<metadata>
Created by potrace 1.14, written by Peter Selinger 2001-2017
</metadata>
<g transform="translate(0.000000,500.000000) scale(0.100000,-0.100000)"
fill="#000000" stroke="none">
<path d="M2245 4463 c-171 -100 -836 -485 -1200 -694 -93 -54 -189 -109 -213
-123 l-42 -26 0 -865 0 -865 85 0 85 0 2 817 3 818 730 422 c402 232 735 422
740 422 10 1 39 -15 938 -533 l537 -310 0 -818 0 -818 85 0 85 0 0 868 -1 867
-356 205 c-196 113 -471 272 -612 353 -529 307 -670 387 -678 386 -4 -1 -89
-48 -188 -106z"/>
<path d="M2495 3448 c-2 -7 -54 -278 -115 -603 -105 -554 -164 -864 -176 -927
l-6 -28 90 0 89 0 11 63 c6 34 22 121 36 192 34 176 112 583 185 965 34 173
63 323 65 333 4 15 -5 17 -85 17 -63 0 -91 -4 -94 -12z"/>
<path d="M1715 3024 c-214 -117 -398 -216 -407 -220 -16 -5 -18 -21 -18 -139
l0 -133 83 -45 c45 -24 222 -121 392 -214 171 -94 320 -175 333 -182 l22 -12
0 151 0 150 -286 143 -286 143 284 137 283 136 3 151 c1 82 -1 150 -5 149 -5
0 -183 -97 -398 -215z"/>
<path d="M2750 3093 l0 -148 285 -139 c156 -76 283 -142 281 -145 -2 -3 -131
-69 -285 -146 l-281 -139 0 -149 c0 -86 4 -147 9 -145 5 2 194 104 420 228
l411 225 0 126 0 127 -152 83 c-84 45 -271 147 -416 226 -144 79 -265 143
-267 143 -3 0 -5 -66 -5 -147z"/>
<path d="M1460 1711 c-78 -25 -110 -77 -110 -179 0 -76 19 -116 73 -156 40
-30 144 -30 184 0 55 41 73 80 73 159 0 78 -18 118 -72 158 -29 22 -108 31
-148 18z m95 -67 c59 -23 59 -195 0 -218 -46 -17 -91 -4 -110 35 -29 54 -11
167 27 182 19 8 64 8 83 1z"/>
<path d="M1472 1578 c-30 -30 -3 -72 44 -66 34 4 53 31 38 56 -13 21 -64 28
-82 10z"/>
<path d="M930 1535 l0 -175 40 0 40 0 0 75 0 75 65 0 65 0 0 -75 0 -75 40 0
40 0 0 175 0 175 -40 0 -40 0 0 -65 0 -65 -65 0 -65 0 0 65 0 65 -40 0 -40 0
0 -175z"/>
<path d="M1810 1535 l0 -175 35 0 35 0 1 123 0 122 38 -120 37 -120 39 0 38 0
42 124 41 124 -4 -127 -4 -126 41 0 41 0 0 175 0 175 -55 0 -54 0 -37 -117
c-20 -65 -39 -121 -43 -126 -4 -4 -25 49 -46 118 l-38 125 -54 0 -53 0 0 -175z"/>
<path d="M2330 1535 l0 -175 105 0 105 0 0 30 0 30 -65 0 -65 0 0 45 0 45 61
0 60 0 -3 33 c-3 32 -4 32 -60 35 l-58 3 0 34 0 35 65 0 65 0 0 30 0 30 -105
0 -105 0 0 -175z"/>
<path d="M2812 1693 c2 -10 21 -89 43 -175 l39 -158 46 0 46 0 30 119 29 118
30 -116 30 -116 46 -3 46 -3 42 165 c22 91 41 170 41 176 0 7 -15 10 -37 8
l-37 -3 -30 -125 -29 -125 -30 128 -31 128 -40 -3 -40 -3 -31 -124 -32 -124
-21 94 c-12 52 -25 109 -28 127 -6 30 -9 32 -46 32 -32 0 -39 -3 -36 -17z"/>
<path d="M3380 1535 l0 -175 105 0 105 0 0 30 0 30 -65 0 -65 0 0 45 0 45 60
0 60 0 0 35 0 35 -60 0 -60 0 0 35 0 35 65 0 65 0 0 30 0 30 -105 0 -105 0 0
-175z"/>
<path d="M3720 1536 l0 -176 91 0 c50 0 100 5 112 11 60 31 77 111 32 153 -25
23 -25 23 -5 41 30 27 27 85 -6 116 -23 21 -36 24 -125 27 l-99 4 0 -176z
m144 104 c52 -19 20 -70 -45 -70 -16 0 -19 7 -19 40 0 44 13 50 64 30z m21
-143 c13 -10 16 -21 12 -39 -7 -26 -30 -38 -74 -38 -21 0 -23 5 -23 45 0 44 1
45 33 45 18 0 41 -6 52 -13z"/>
<path d="M1855 1107 c11 -7 147 -86 301 -175 l282 -162 178 103 c99 57 233
135 299 173 l120 69 -164 3 -164 3 -131 -76 c-73 -41 -135 -75 -140 -75 -4 0
-65 34 -136 75 l-129 75 -167 0 c-143 0 -165 -2 -149 -13z"/>
<path d="M999 598 c-23 -40 -49 -83 -57 -95 -8 -13 -12 -23 -9 -23 3 0 29 39
58 88 63 105 61 102 56 102 -3 0 -24 -33 -48 -72z"/>
<path d="M1378 645 c-6 -14 -15 -25 -19 -25 -5 0 -6 -6 -3 -14 5 -13 -11 -111
-23 -143 -3 -7 -1 -13 5 -13 6 0 18 36 28 80 14 68 20 80 38 81 18 1 18 2 3 6
-23 6 -18 39 6 37 9 -1 17 2 17 7 0 20 -41 8 -52 -16z"/>
<path d="M1857 592 c-21 -97 -21 -92 6 -92 16 0 18 3 8 9 -13 8 -10 38 15 138
4 13 2 23 -3 23 -5 0 -17 -35 -26 -78z"/>
<path d="M2746 659 c-2 -8 -6 -21 -9 -29 -2 -10 -14 -14 -40 -12 -32 3 -39 -1
-57 -30 -30 -51 -4 -106 44 -89 11 5 26 6 32 4 12 -4 50 154 40 164 -3 3 -8 0
-10 -8z m-28 -61 c16 -20 2 -68 -24 -80 -47 -22 -73 33 -34 72 23 23 43 26 58
8z"/>
<path d="M3241 608 c-7 -35 -15 -73 -18 -85 -4 -19 -1 -23 18 -23 16 0 20 3
11 8 -10 7 -9 23 3 81 18 85 17 81 6 81 -4 0 -14 -28 -20 -62z"/>
<path d="M1121 574 c-53 -89 -71 -132 -23 -54 49 78 84 140 79 140 -2 0 -28
-39 -56 -86z"/>
<path d="M1451 568 c-13 -60 -13 -68 -2 -68 5 0 11 18 15 39 4 27 15 46 33 59
l28 21 -32 -1 c-30 -1 -33 -4 -42 -50z"/>
<path d="M1562 597 c-12 -13 -22 -35 -22 -50 0 -48 60 -68 91 -30 11 12 9 12
-14 2 -30 -14 -57 -6 -57 16 0 10 10 15 28 15 63 0 87 62 27 68 -22 2 -37 -4
-53 -21z m73 -7 c0 -10 -13 -16 -40 -18 l-39 -3 19 21 c21 23 60 23 60 0z"/>
<path d="M1712 597 c-12 -13 -22 -35 -22 -50 0 -48 60 -68 91 -30 11 12 9 12
-14 2 -30 -14 -57 -6 -57 16 0 10 10 15 28 15 63 0 87 62 27 68 -22 2 -37 -4
-53 -21z m73 -7 c0 -10 -13 -16 -40 -18 l-39 -3 19 21 c21 23 60 23 60 0z"/>
<path d="M1945 600 c-40 -44 -11 -119 39 -101 11 5 26 6 32 4 8 -3 34 76 34
106 0 4 -20 8 -43 9 -33 2 -49 -3 -62 -18z m73 -6 c24 -43 -27 -104 -63 -74
-21 17 -19 46 5 70 24 24 46 26 58 4z"/>
<path d="M2106 605 c-8 -22 -18 -105 -13 -105 6 0 29 75 30 95 0 6 14 11 30
12 l30 2 -7 -57 c-5 -42 -4 -54 4 -46 7 7 12 33 13 60 l2 49 -42 1 c-26 1 -44
-3 -47 -11z"/>
<path d="M2261 594 c-26 -33 -27 -58 -1 -84 16 -16 24 -18 50 -9 16 6 30 15
30 20 0 5 -11 3 -25 -3 -35 -16 -61 8 -51 46 8 32 51 55 68 38 17 -17 33 -15
18 3 -20 24 -66 18 -89 -11z"/>
<path d="M2412 597 c-12 -13 -22 -35 -22 -50 0 -48 60 -68 91 -30 11 12 9 12
-14 2 -30 -14 -57 -6 -57 16 0 10 10 15 28 15 63 0 87 62 27 68 -22 2 -37 -4
-53 -21z m74 2 c11 -18 -11 -31 -47 -27 -31 3 -32 4 -15 21 20 19 51 23 62 6z"/>
<path d="M2811 601 c-12 -12 -21 -34 -21 -50 0 -51 59 -73 91 -35 14 17 5 18
-20 2 -22 -14 -51 -4 -51 17 0 10 10 15 28 15 64 0 87 62 25 68 -22 2 -38 -3
-52 -17z m69 -11 c0 -16 -7 -20 -35 -20 -40 0 -41 2 -19 24 22 23 54 20 54 -4z"/>
<path d="M2953 563 c5 -32 11 -60 13 -62 13 -15 79 89 71 112 -2 7 -13 -9 -24
-34 -26 -58 -43 -70 -43 -32 0 36 -10 73 -20 73 -4 0 -3 -26 3 -57z"/>
<path d="M3091 594 c-26 -33 -27 -58 -2 -83 15 -15 26 -18 47 -12 15 4 29 12
31 18 3 9 -4 9 -27 0 -25 -10 -33 -9 -40 3 -15 24 -12 30 18 30 64 0 87 62 26
68 -25 2 -37 -3 -53 -24z m74 -4 c0 -10 -13 -16 -40 -18 l-39 -3 19 21 c21 23
60 23 60 0z"/>
<path d="M3325 600 c-20 -22 -25 -74 -7 -92 16 -16 60 -13 83 8 15 13 19 28
17 58 -3 39 -5 41 -39 44 -25 2 -40 -3 -54 -18z m76 -14 c20 -44 -31 -95 -66
-66 -21 17 -19 46 5 70 27 27 48 25 61 -4z"/>
<path d="M3471 556 c-6 -34 -14 -71 -17 -83 -4 -13 -2 -23 4 -23 5 0 12 14 16
30 5 26 8 29 24 21 24 -13 62 6 81 41 12 21 13 31 3 52 -10 23 -17 26 -55 25
l-44 -2 -12 -61z m89 39 c26 -32 -18 -96 -56 -81 -19 7 -18 55 3 78 20 22 36
23 53 3z"/>
<path d="M3646 598 c-34 -48 -5 -114 44 -101 22 6 48 33 32 33 -6 0 -14 -4
-17 -10 -11 -17 -44 -11 -55 10 -9 17 -8 20 14 20 46 0 78 18 74 43 -5 33 -70
37 -92 5z m74 -8 c0 -16 -7 -20 -35 -20 -38 0 -46 13 -17 29 28 17 52 13 52
-9z"/>
<path d="M3796 610 c-13 -39 -23 -110 -15 -110 8 0 12 11 23 62 4 16 18 34 34
42 18 10 22 15 10 16 -9 0 -20 -5 -24 -11 -4 -8 -9 -7 -15 2 -6 11 -9 11 -13
-1z"/>
</g>
</svg>
